<?xml version="1.0" encoding="UTF-8"?>
<!--
  Icono de WireGuardExt (128×128 como fuente; se rasteriza a 16/48/128).

  Composición original inspirada en la estética del logo de WireGuard
  (escudo rojizo con patrón serpenteante), añadiendo un arco superior que
  evoca una ventana de navegador/globo, para distinguirlo como "VPN de
  navegador". No reproduce el logo oficial (marca registrada).

  Paleta:
    - Rojo brillante #d4322d → granate oscuro #781216 (degradado del escudo)
    - Blanco #fffcfc (patrón serpenteante)
    - Dorado #ffdc78 (punto focal)
-->
<svg xmlns="http://www.w3.org/2000/svg" width="128" height="128" viewBox="0 0 128 128">
  <defs>
    <!-- Degradado radial del escudo: brillante en el centro, oscuro en el borde -->
    <radialGradient id="shield" cx="50%" cy="42%" r="60%">
      <stop offset="0%" stop-color="#e23a2f"/>
      <stop offset="55%" stop-color="#b8251f"/>
      <stop offset="100%" stop-color="#6e1014"/>
    </radialGradient>
    <!-- Brillo sutil superior (volumen) -->
    <linearGradient id="gloss" x1="0" y1="0" x2="0" y2="1">
      <stop offset="0%" stop-color="#ffffff" stop-opacity="0.28"/>
      <stop offset="45%" stop-color="#ffffff" stop-opacity="0"/>
    </linearGradient>
  </defs>

  <!-- Escudo circular con degradado -->
  <circle cx="64" cy="64" r="59" fill="url(#shield)"/>

  <!-- Anillo metálico claro interno (contorno sutil) -->
  <circle cx="64" cy="64" r="57" fill="none" stroke="#f0c8c4" stroke-opacity="0.25" stroke-width="1.5"/>
  <circle cx="64" cy="64" r="59" fill="none" stroke="#3a0a0c" stroke-opacity="0.6" stroke-width="1.5"/>

  <!-- Brillo superior (sensación de volumen) -->
  <circle cx="64" cy="64" r="59" fill="url(#gloss)"/>

  <!-- Arco superior: referencia a ventana de navegador / globo -->
  <path d="M 27 42 A 42 42 0 0 1 101 42"
        fill="none" stroke="#ffffff" stroke-opacity="0.32"
        stroke-width="3" stroke-linecap="round"/>

  <!-- Cabeza de dragón estilizada (motivo central, homenaje a WireGuard) -->
  <!-- Dragón heráldico de frente, simétrico. Diseño bold que escala bien
       incluso a 16px: cráneo, dos cuernos, dos ojos y hocico puntiagudo. -->
  <g fill="#fffcfc">
    <!-- Cuernos (simétricos, hacia afuera/arriba) -->
    <path d="M 50 52 C 44 44, 40 42, 38 44 C 37 46, 38 49, 42 52 C 45 54, 48 55, 51 56 Z"/>
    <path d="M 78 52 C 84 44, 88 42, 90 44 C 91 46, 90 49, 86 52 C 83 54, 80 55, 77 56 Z"/>

    <!-- Cráneo + hocico (forma de cabeza frontal) -->
    <path d="M 64 50
             C 54 50, 47 56, 47 65
             C 47 71, 51 75, 55 76
             L 60 86
             C 61 88, 63 88, 64 86
             L 64 78
             L 64 86
             C 65 88, 67 88, 68 86
             L 73 76
             C 77 75, 81 71, 81 65
             C 81 56, 74 50, 64 50 Z"/>

    <!-- Mejillas (apéndices a los lados del hocico, tipo barbas de dragón) -->
    <path d="M 47 67 L 42 72 L 48 72 Z"/>
    <path d="M 81 67 L 86 72 L 80 72 Z"/>
  </g>

  <!-- Ojos (simétricos, recortes oscuros) -->
  <ellipse cx="57" cy="64" rx="3" ry="3.5" fill="#3a0a0c"/>
  <ellipse cx="71" cy="64" rx="3" ry="3.5" fill="#3a0a0c"/>
  <!-- Pupilas brillantes doradas -->
  <circle cx="57.5" cy="64" r="1.1" fill="#ffdc78"/>
  <circle cx="71.5" cy="64" r="1.1" fill="#ffdc78"/>
</svg>
